<?xml version="1.0" encoding="iso-8859-1"?>
<!-- Generator: Adobe Illustrator 19.0.0, SVG Export Plug-In . SVG Version: 6.00 Build 0)  -->
<svg version="1.1" id="Layer_1" xmlns="http://www.w3.org/2000/svg" xmlns:xlink="http://www.w3.org/1999/xlink" x="0px" y="0px"
	 viewBox="0 0 512 512" style="enable-background:new 0 0 512 512;" xml:space="preserve">
<g>
	<g>
		<g>
			<path d="M72.837,42.667h97.83c11.782,0,21.333-9.551,21.333-21.333C192,9.551,182.449,0,170.667,0H21.333c0,0-0.001,0-0.001,0
				c-0.702,0-1.405,0.037-2.104,0.106c-0.316,0.031-0.622,0.09-0.933,0.135c-0.377,0.054-0.755,0.098-1.13,0.172
				c-0.358,0.071-0.705,0.169-1.056,0.258c-0.323,0.081-0.648,0.152-0.968,0.249c-0.345,0.104-0.678,0.234-1.015,0.355
				c-0.319,0.115-0.641,0.22-0.956,0.35c-0.315,0.131-0.618,0.284-0.925,0.43c-0.323,0.152-0.65,0.296-0.967,0.466
				c-0.295,0.158-0.575,0.338-0.862,0.509C10.106,3.215,9.791,3.39,9.488,3.593c-0.317,0.212-0.615,0.448-0.92,0.676
				C8.316,4.458,8.057,4.633,7.812,4.835C6.725,5.727,5.727,6.725,4.835,7.812C4.633,8.057,4.458,8.316,4.269,8.569
				c-0.228,0.305-0.464,0.603-0.676,0.92c-0.203,0.303-0.378,0.617-0.564,0.928c-0.171,0.286-0.351,0.567-0.509,0.862
				c-0.17,0.317-0.313,0.643-0.466,0.967c-0.145,0.307-0.299,0.61-0.43,0.925c-0.13,0.315-0.235,0.636-0.35,0.956
				c-0.121,0.337-0.25,0.67-0.355,1.015c-0.097,0.32-0.168,0.645-0.249,0.968c-0.089,0.351-0.187,0.698-0.258,1.056
				c-0.074,0.375-0.118,0.753-0.172,1.13c-0.044,0.311-0.104,0.618-0.135,0.933C0.037,19.928,0,20.63,0,21.333v149.333
				C0,182.449,9.551,192,21.333,192c11.782,0,21.333-9.551,21.333-21.333v-97.83l155.582,155.582c8.331,8.331,21.839,8.331,30.17,0
				s8.331-21.839,0-30.17L72.837,42.667z"/>
			<path d="M494.835,511.587c0.358-0.071,0.704-0.169,1.055-0.258c0.324-0.081,0.649-0.152,0.969-0.249
				c0.344-0.104,0.677-0.233,1.013-0.354c0.32-0.115,0.642-0.22,0.957-0.35c0.314-0.13,0.615-0.283,0.921-0.428
				c0.325-0.153,0.653-0.297,0.971-0.468c0.293-0.157,0.572-0.336,0.857-0.506c0.312-0.186,0.628-0.363,0.932-0.566
				c0.315-0.211,0.611-0.445,0.913-0.671c0.255-0.191,0.516-0.368,0.764-0.571c0.535-0.439,1.05-0.903,1.54-1.392
				c0.008-0.007,0.016-0.014,0.023-0.021s0.014-0.016,0.021-0.023c0.488-0.49,0.952-1.004,1.392-1.54
				c0.204-0.248,0.38-0.509,0.571-0.764c0.226-0.302,0.461-0.598,0.671-0.913c0.204-0.304,0.38-0.62,0.566-0.932
				c0.17-0.285,0.349-0.564,0.506-0.857c0.17-0.318,0.315-0.646,0.468-0.971c0.145-0.306,0.297-0.607,0.428-0.921
				c0.13-0.315,0.236-0.637,0.35-0.957c0.121-0.337,0.25-0.669,0.354-1.013c0.097-0.32,0.168-0.646,0.249-0.969
				c0.089-0.351,0.187-0.698,0.258-1.055c0.074-0.375,0.118-0.753,0.173-1.13c0.044-0.311,0.104-0.617,0.135-0.933
				c0.069-0.701,0.106-1.404,0.106-2.107V341.333c0-11.782-9.551-21.333-21.333-21.333s-21.333,9.551-21.333,21.333v97.83
				L313.752,283.582c-8.331-8.331-21.839-8.331-30.17,0s-8.331,21.839,0,30.17l155.582,155.582h-97.83
				c-11.782,0-21.333,9.551-21.333,21.333S329.551,512,341.333,512h149.333c0.703,0,1.405-0.037,2.105-0.106
				c0.315-0.031,0.621-0.09,0.933-0.135C494.082,511.705,494.46,511.661,494.835,511.587z"/>
		</g>
	</g>
</g>
<g>
</g>
<g>
</g>
<g>
</g>
<g>
</g>
<g>
</g>
<g>
</g>
<g>
</g>
<g>
</g>
<g>
</g>
<g>
</g>
<g>
</g>
<g>
</g>
<g>
</g>
<g>
</g>
<g>
</g>
</svg>
